<svg xmlns="http://www.w3.org/2000/svg" viewBox="0 0 200 200" fill="none">
  <rect width="200" height="200" rx="20" fill="#ffffff"/>
  <g transform="translate(100,85)">
    <circle cx="0" cy="0" r="42" stroke="#1a1a1a" stroke-width="5" fill="none"/>
    <circle cx="0" cy="0" r="36" stroke="#1a1a1a" stroke-width="2" fill="none"/>
    <line x1="0" y1="-36" x2="0" y2="36" stroke="#1a1a1a" stroke-width="2"/>
    <line x1="-36" y1="0" x2="36" y2="0" stroke="#1a1a1a" stroke-width="2"/>
    <path d="M0,0 L0,-36 A36,36 0 0,1 36,0 Z" fill="#0066B1"/>
    <path d="M0,0 L0,36 A36,36 0 0,1 -36,0 Z" fill="#0066B1"/>
    <path d="M0,0 L-36,0 A36,36 0 0,1 0,-36 Z" fill="white"/>
    <path d="M0,0 L36,0 A36,36 0 0,1 0,36 Z" fill="white"/>
  </g>
  <text x="100" y="158" font-family="Arial,sans-serif" font-size="24" font-weight="800" fill="#1a1a1a" text-anchor="middle" letter-spacing="4">BMW</text>
</svg>
